<?xml version="1.0" encoding="UTF-8" standalone="no"?>
<!DOCTYPE svg PUBLIC "-//W3C//DTD SVG 1.1//EN" "http://www.w3.org/Graphics/SVG/1.1/DTD/svg11.dtd">
<svg width="100%" height="100%" viewBox="0 0 1024 1024" version="1.1" xmlns="http://www.w3.org/2000/svg" xmlns:xlink="http://www.w3.org/1999/xlink" xml:space="preserve" xmlns:serif="http://www.serif.com/" style="fill-rule:evenodd;clip-rule:evenodd;stroke-linejoin:round;stroke-miterlimit:2;">
    <g transform="matrix(1,0,0,1,-1088,0)">
        <g id="ICON_PLAYING" transform="matrix(1,0,0,1,1088,1.13687e-13)">
            <rect x="0" y="0" width="1024" height="1024" style="fill:none;"/>
            <g id="apollo.afdesign" transform="matrix(1,0,0,1,512,512)">
                <g transform="matrix(1,0,0,1,-512,-512)">
                    <clipPath id="_clip1">
                        <rect x="0" y="0" width="1024" height="1024"/>
                    </clipPath>
                    <g clip-path="url(#_clip1)">
                        <g>
                            <g transform="matrix(1.27997,0,0,1.27997,-143.345,-143.345)">
                                <g transform="matrix(1.26917,-0.732758,0.732758,1.26917,-512.989,237.355)">
                                    <path d="M512,264C556.301,340.731 638.172,388 726.774,388C682.473,464.731 682.473,559.269 726.774,636C638.172,636 556.301,683.269 512,760C467.699,683.269 385.828,636 297.226,636C341.527,559.269 341.527,464.731 297.226,388C385.828,388 467.699,340.731 512,264ZM512,338.465C471.86,381.904 419.404,412.19 361.715,425.233C379.264,481.715 379.264,542.285 361.715,598.767C419.404,611.81 471.86,642.096 512,685.535C552.14,642.096 604.596,611.81 662.285,598.767C644.736,542.285 644.736,481.715 662.285,425.233C604.596,412.19 552.14,381.904 512,338.465Z" style="fill:white;"/>
                                </g>
                                <g transform="matrix(1.26917,-0.732758,0.732758,1.26917,-512.989,237.355)">
                                    <path d="M512,264C556.301,340.731 638.172,388 726.774,388C682.473,464.731 682.473,559.269 726.774,636C638.172,636 556.301,683.269 512,760C467.699,683.269 385.828,636 297.226,636C341.527,559.269 341.527,464.731 297.226,388C385.828,388 467.699,340.731 512,264ZM512,338.465C471.86,381.904 419.404,412.19 361.715,425.233C379.264,481.715 379.264,542.285 361.715,598.767C419.404,611.81 471.86,642.096 512,685.535C552.14,642.096 604.596,611.81 662.285,598.767C644.736,542.285 644.736,481.715 662.285,425.233C604.596,412.19 552.14,381.904 512,338.465Z" style="fill:white;"/>
                                </g>
                            </g>
                        </g>
                    </g>
                </g>
            </g>
            <g>
                <g transform="matrix(3.13097e-17,0.511327,-0.481328,2.94728e-17,908.573,-366.46)">
                    <path d="M1718,454L2027,1011L1409,1011L1718,454Z" style="fill:rgb(46,202,51);"/>
                    <path d="M1830.33,383.677L2139.32,940.677C2163.08,983.499 2163.41,1036.56 2140.2,1079.72C2116.99,1122.87 2073.79,1149.51 2027,1149.51L1409,1149.51C1362.21,1149.51 1319.01,1122.87 1295.8,1079.72C1272.59,1036.56 1272.92,983.499 1296.67,940.677L1605.67,383.677C1629.11,341.427 1671.84,315.494 1718,315.494C1764.16,315.494 1806.89,341.427 1830.33,383.677ZM1718,454L1409,1011L2027,1011L1718,454Z" style="fill:white;"/>
                    <path d="M1718,454L2027,1011L1409,1011L1718,454Z" style="fill:rgb(46,202,51);"/>
                    <path d="M1830.33,383.677L2139.32,940.677C2163.08,983.499 2163.41,1036.56 2140.2,1079.72C2116.99,1122.87 2073.79,1149.51 2027,1149.51L1409,1149.51C1362.21,1149.51 1319.01,1122.87 1295.8,1079.72C1272.59,1036.56 1272.92,983.499 1296.67,940.677L1605.67,383.677C1629.11,341.427 1671.84,315.494 1718,315.494C1764.16,315.494 1806.89,341.427 1830.33,383.677ZM1718,454L1409,1011L2027,1011L1718,454Z" style="fill:white;"/>
                </g>
            </g>
        </g>
    </g>
</svg>
