<?xml version="1.0" encoding="UTF-8" standalone="no"?>
<!DOCTYPE svg PUBLIC "-//W3C//DTD SVG 1.1//EN" "http://www.w3.org/Graphics/SVG/1.1/DTD/svg11.dtd">
<svg width="100%" height="100%" viewBox="0 0 1024 1024" version="1.1" xmlns="http://www.w3.org/2000/svg" xmlns:xlink="http://www.w3.org/1999/xlink" xml:space="preserve" xmlns:serif="http://www.serif.com/" style="fill-rule:evenodd;clip-rule:evenodd;stroke-linejoin:round;stroke-miterlimit:2;">
    <g transform="matrix(1,0,0,1,-3264,0)">
        <g id="ICON_LOCK" transform="matrix(1,0,0,1,3264,0)">
            <rect x="0" y="0" width="1024" height="1024" style="fill:none;"/>
            <g id="apollo.afdesign" transform="matrix(1,0,0,1,512,512)">
                <g transform="matrix(1,0,0,1,-512,-512)">
                    <clipPath id="_clip1">
                        <rect x="0" y="0" width="1024" height="1024"/>
                    </clipPath>
                    <g clip-path="url(#_clip1)">
                        <g>
                            <g transform="matrix(1.27997,0,0,1.27997,-143.345,-143.345)">
                                <g transform="matrix(1.26917,-0.732758,0.732758,1.26917,-512.989,237.355)">
                                    <path d="M512,264C556.301,340.731 638.172,388 726.774,388C682.473,464.731 682.473,559.269 726.774,636C638.172,636 556.301,683.269 512,760C467.699,683.269 385.828,636 297.226,636C341.527,559.269 341.527,464.731 297.226,388C385.828,388 467.699,340.731 512,264ZM512,338.465C471.86,381.904 419.404,412.19 361.715,425.233C379.264,481.715 379.264,542.285 361.715,598.767C419.404,611.81 471.86,642.096 512,685.535C552.14,642.096 604.596,611.81 662.285,598.767C644.736,542.285 644.736,481.715 662.285,425.233C604.596,412.19 552.14,381.904 512,338.465Z" style="fill:white;"/>
                                </g>
                                <g transform="matrix(1.26917,-0.732758,0.732758,1.26917,-512.989,237.355)">
                                    <path d="M512,264C556.301,340.731 638.172,388 726.774,388C682.473,464.731 682.473,559.269 726.774,636C638.172,636 556.301,683.269 512,760C467.699,683.269 385.828,636 297.226,636C341.527,559.269 341.527,464.731 297.226,388C385.828,388 467.699,340.731 512,264ZM512,338.465C471.86,381.904 419.404,412.19 361.715,425.233C379.264,481.715 379.264,542.285 361.715,598.767C419.404,611.81 471.86,642.096 512,685.535C552.14,642.096 604.596,611.81 662.285,598.767C644.736,542.285 644.736,481.715 662.285,425.233C604.596,412.19 552.14,381.904 512,338.465Z" style="fill:white;"/>
                                </g>
                            </g>
                        </g>
                    </g>
                </g>
            </g>
            <g>
                <g transform="matrix(9.87655,0,0,9.87655,-36569.9,-4193.99)">
                    <g transform="matrix(143.793,0,0,143.793,3726,564)">
                        <path d="M0.349,-0.558L0.317,-0.505L0.216,-0.58L0.228,-0.453L0.168,-0.453L0.181,-0.58L0.079,-0.505L0.048,-0.558L0.165,-0.608L0.048,-0.659L0.079,-0.711L0.181,-0.637L0.168,-0.764L0.228,-0.764L0.216,-0.637L0.317,-0.711L0.349,-0.659L0.232,-0.608L0.349,-0.558Z" style="fill:white;fill-rule:nonzero;"/>
                    </g>
                </g>
                <g transform="matrix(9.87655,0,0,9.87655,-36569.9,-4193.99)">
                    <g transform="matrix(143.793,0,0,143.793,3726,564)">
                        <path d="M0.349,-0.558L0.317,-0.505L0.216,-0.58L0.228,-0.453L0.168,-0.453L0.181,-0.58L0.079,-0.505L0.048,-0.558L0.165,-0.608L0.048,-0.659L0.079,-0.711L0.181,-0.637L0.168,-0.764L0.228,-0.764L0.216,-0.637L0.317,-0.711L0.349,-0.659L0.232,-0.608L0.349,-0.558Z" style="fill:white;fill-rule:nonzero;"/>
                    </g>
                </g>
            </g>
        </g>
    </g>
</svg>
