<?xml version="1.0" encoding="UTF-8" standalone="no"?>
<!DOCTYPE svg PUBLIC "-//W3C//DTD SVG 1.1//EN" "http://www.w3.org/Graphics/SVG/1.1/DTD/svg11.dtd">
<svg width="100%" height="100%" viewBox="0 0 1024 1024" version="1.1" xmlns="http://www.w3.org/2000/svg" xmlns:xlink="http://www.w3.org/1999/xlink" xml:space="preserve" xmlns:serif="http://www.serif.com/" style="fill-rule:evenodd;clip-rule:evenodd;stroke-linejoin:round;stroke-miterlimit:2;">
    <rect id="ICON_MAIN" x="0" y="0" width="1024" height="1024" style="fill:none;"/>
    <g id="ICON_MAIN1" serif:id="ICON_MAIN">
        <g id="apollo.afdesign" transform="matrix(1,0,0,1,512,512)">
            <g transform="matrix(1,0,0,1,-512,-512)">
                <clipPath id="_clip1">
                    <rect x="0" y="0" width="1024" height="1024"/>
                </clipPath>
                <g clip-path="url(#_clip1)">
                    <g>
                        <g transform="matrix(1.27997,0,0,1.27997,-143.345,-143.345)">
                            <g>
                                <g transform="matrix(1.51135,0,0,1.51135,-71.7818,-193.324)">
                                    <path d="M386.266,211.675L443.827,366.986L607.111,339.18L501.389,466.686L607.111,594.191L443.827,566.385L386.266,721.696L328.704,566.385L165.42,594.191L271.143,466.686L165.42,339.18L328.704,366.986L386.266,211.675ZM386.266,335.633L356.684,415.449L272.771,401.159L327.103,466.686L272.771,532.212L356.684,517.922L386.266,597.738L415.847,517.922L499.761,532.212L445.429,466.686L499.761,401.159L415.847,415.449L386.266,335.633Z" style="fill:white;"/>
                                </g>
                                <g transform="matrix(1.26917,-0.732758,0.732758,1.26917,-512.989,237.355)">
                                    <path d="M512,264C556.301,340.731 638.172,388 726.774,388C682.473,464.731 682.473,559.269 726.774,636C638.172,636 556.301,683.269 512,760C467.699,683.269 385.828,636 297.226,636C341.527,559.269 341.527,464.731 297.226,388C385.828,388 467.699,340.731 512,264ZM512,338.465C471.86,381.904 419.404,412.19 361.715,425.233C379.264,481.715 379.264,542.285 361.715,598.767C419.404,611.81 471.86,642.096 512,685.535C552.14,642.096 604.596,611.81 662.285,598.767C644.736,542.285 644.736,481.715 662.285,425.233C604.596,412.19 552.14,381.904 512,338.465Z" style="fill:white;"/>
                                </g>
                            </g>
                            <g>
                                <g transform="matrix(1.51135,0,0,1.51135,-71.7818,-193.324)">
                                    <path d="M386.266,211.675L443.827,366.986L607.111,339.18L501.389,466.686L607.111,594.191L443.827,566.385L386.266,721.696L328.704,566.385L165.42,594.191L271.143,466.686L165.42,339.18L328.704,366.986L386.266,211.675ZM386.266,335.633L356.684,415.449L272.771,401.159L327.103,466.686L272.771,532.212L356.684,517.922L386.266,597.738L415.847,517.922L499.761,532.212L445.429,466.686L499.761,401.159L415.847,415.449L386.266,335.633Z" style="fill:white;"/>
                                </g>
                                <g transform="matrix(1.26917,-0.732758,0.732758,1.26917,-512.989,237.355)">
                                    <path d="M512,264C556.301,340.731 638.172,388 726.774,388C682.473,464.731 682.473,559.269 726.774,636C638.172,636 556.301,683.269 512,760C467.699,683.269 385.828,636 297.226,636C341.527,559.269 341.527,464.731 297.226,388C385.828,388 467.699,340.731 512,264ZM512,338.465C471.86,381.904 419.404,412.19 361.715,425.233C379.264,481.715 379.264,542.285 361.715,598.767C419.404,611.81 471.86,642.096 512,685.535C552.14,642.096 604.596,611.81 662.285,598.767C644.736,542.285 644.736,481.715 662.285,425.233C604.596,412.19 552.14,381.904 512,338.465Z" style="fill:white;"/>
                                </g>
                            </g>
                        </g>
                    </g>
                </g>
            </g>
        </g>
    </g>
</svg>
